<svg xmlns="http://www.w3.org/2000/svg" viewBox="0 0 132.91 36.87"><defs><style>.cls-1{fill:#222;}.cls-2{fill:#2d7df4;}</style></defs><g id="레이어_2" data-name="레이어 2"><g id="레이어_1-2" data-name="레이어 1"><path class="cls-1" d="M0,31.68l4.08-4.89a14,14,0,0,0,9,3.93c3.7,0,5.67-1.58,5.67-4.08s-2.16-3.45-5.33-4.8l-4.75-2c-3.6-1.49-7.2-4.37-7.2-9.56C1.49,4.46,6.58,0,13.78,0A15.74,15.74,0,0,1,24.91,4.56L21.31,9A11.3,11.3,0,0,0,13.78,6.1c-3.12,0-5.09,1.39-5.09,3.74,0,2.55,2.5,3.46,5.52,4.66l4.66,2C23.19,18.24,26,21,26,26.11,26,31.92,21.17,36.87,13,36.87A18.91,18.91,0,0,1,0,31.68Z"/><path class="cls-1" d="M38.26,6.58h-10v-6H55.44v6H45.36V36.2h-7.1Z"/><path class="cls-1" d="M89.17,6.58h-10v-6h27.17v6H96.27V36.2h-7.1Z"/><rect class="cls-1" x="111.11" y="0.62" width="21.79" height="5.88"/><rect class="cls-1" x="111.11" y="15.47" width="21.79" height="5.88"/><rect class="cls-1" x="111.11" y="30.32" width="21.79" height="5.88"/><polygon class="cls-1" points="68.56 0.54 63.7 11.75 74.39 36.23 84.06 36.23 68.56 0.54"/><circle class="cls-2" cx="59.47" cy="31.83" r="4.4"/></g></g></svg>